<?xml version="1.0" encoding="utf-8"?>
<!-- Generator: Adobe Illustrator 19.2.1, SVG Export Plug-In . SVG Version: 6.00 Build 0)  -->
<svg version="1.1" id="Layer_1" xmlns="http://www.w3.org/2000/svg" xmlns:xlink="http://www.w3.org/1999/xlink" x="0px" y="0px"
	 viewBox="0 0 612 792" style="enable-background:new 0 0 612 792;" xml:space="preserve">
<style type="text/css">
	.st0{fill:none;stroke:#000000;stroke-miterlimit:10;}
	.st1{fill:none;}
	.st2{font-family:'MyriadPro-Regular';}
	.st3{font-size:12px;}
	.st4{fill:#020202;}
</style>
<line class="st0" x1="144.1" y1="144.6" x2="144.6" y2="288.1"/>
<line class="st0" x1="432.1" y1="287.7" x2="144.6" y2="288.1"/>
<path class="st0" d="M288.6,287.7"/>
<line class="st0" x1="288.6" y1="287.7" x2="288.6" y2="281.5"/>
<line class="st0" x1="359.8" y1="287.7" x2="359.8" y2="281.5"/>
<rect x="286.3" y="288.6" class="st1" width="11.5" height="12.3"/>
<text transform="matrix(1 0 0 1 286.3484 297.1191)" class="st2 st3">x</text>
<text transform="matrix(0.583 0 0 0.583 291.9046 301.1152)" class="st2 st3">i</text>
<rect x="357" y="288.4" class="st1" width="18.9" height="12.7"/>
<text transform="matrix(1 0 0 1 357.0157 296.8831)" class="st2 st3">x</text>
<text transform="matrix(0.583 0 0 0.583 362.5714 300.8792)" class="st2 st3">j</text>
<line class="st0" x1="144.3" y1="215.7" x2="151.2" y2="215.7"/>
<rect x="133" y="211.2" class="st1" width="11.3" height="17"/>
<text transform="matrix(1 0 0 1 133.0058 219.6954)" class="st2 st3">1</text>
<g>
	<g>
		<path d="M287.6,218.9c3.2,0,3.2-5,0-5C284.4,213.9,284.4,218.9,287.6,218.9L287.6,218.9z"/>
	</g>
</g>
<g>
	<g>
		<path d="M359.8,218.9c3.2,0,3.2-5,0-5C356.6,213.9,356.6,218.9,359.8,218.9L359.8,218.9z"/>
	</g>
</g>
<rect x="282.4" y="200.3" class="st1" width="26" height="14.2"/>
<text transform="matrix(1 0 0 1 282.4242 208.8371)" class="st2 st3">S</text>
<text transform="matrix(0.583 0 0 0.583 288.3402 212.8332)" class="st2 st3">i</text>
<rect x="353.7" y="199.1" class="st1" width="25.5" height="16.5"/>
<text transform="matrix(1 0 0 1 353.7102 207.6572)" class="st2 st3">S</text>
<text transform="matrix(0.583 0 0 0.583 359.6263 211.6533)" class="st2 st3">j</text>
<line class="st1" x1="288.6" y1="287.7" x2="359.8" y2="216.4"/>
<line class="st1" x1="288.6" y1="287.7" x2="359.8" y2="216.4"/>
<line class="st4" x1="287.6" y1="216.4" x2="359.8" y2="287.7"/>
<line class="st0" x1="288.6" y1="287.7" x2="359.8" y2="217.1"/>
<line class="st0" x1="287.6" y1="216.4" x2="359.8" y2="287.7"/>
<line class="st0" x1="287.6" y1="216.4" x2="254.1" y2="287.7"/>
<line class="st0" x1="359.8" y1="216.4" x2="395.3" y2="287.9"/>
</svg>
